# xmcd CD database file
#
# Track frame offsets:
#	150
#	18046
#	49412
#	72945
#	90688
#	103865
#	136510
#	148573
#
# Disc length: 2336 seconds
#
# Revision: 0
# Processed by: cddbd v1.5.2PL0 Copyright (c) Steve Scherf et al.
# Submitted via: CDex 1.51
#
DISCID=66091e08
DTITLE=Dave Pike Set - Infra-Red
DYEAR=1900
DGENRE=Jazz
TTITLE0=Suspicious child
TTITLE1=Attack of the green misers
TTITLE2=But anyway
TTITLE3=Rabbi Mogen's hideout
TTITLE4=Raga jeeva swara
TTITLE5=Send me yellow guys
TTITLE6=Soul eggs
TTITLE7=Infra red
EXTD=
EXTT0=
EXTT1=
EXTT2=
EXTT3=
EXTT4=
EXTT5=
EXTT6=
EXTT7=
PLAYORDER=
